<?xml version="1.0" encoding="iso-8859-1"?>
<!-- Generator: Adobe Illustrator 16.0.0, SVG Export Plug-In . SVG Version: 6.00 Build 0)  -->
<!DOCTYPE svg PUBLIC "-//W3C//DTD SVG 1.1//EN" "http://www.w3.org/Graphics/SVG/1.1/DTD/svg11.dtd">
<svg xmlns="http://www.w3.org/2000/svg" xmlns:xlink="http://www.w3.org/1999/xlink" version="1.1" id="Capa_1" x="0px" y="0px" width="512px" height="512px" viewBox="0 0 185.043 185.043" style="enable-background:new 0 0 185.043 185.043;" xml:space="preserve">
<g>
	<g>
		<polygon points="153.243,0.006 119.715,0.006 98.011,31.012 114.765,54.963   " fill="#ffd700"/>
		<path d="M98.017,68.524v-5.717h11.262L65.321,0H31.8l43.958,62.807h11.286v5.717c-29.63,2.783-52.906,27.782-52.906,58.118    c0,32.199,26.199,58.401,58.398,58.401c32.196,0,58.404-26.202,58.404-58.401C150.928,96.294,127.656,71.301,98.017,68.524z     M92.531,175.69c-27.048,0-49.045-22-49.045-49.049c0-27.048,21.997-49.045,49.045-49.045c27.051,0,49.045,21.997,49.045,49.045    C141.576,153.69,119.582,175.69,92.531,175.69z" fill="#ffd700"/>
		<path d="M92.531,92.348c9.977,0,19.439,4.336,25.967,11.893l4.713-4.074c-7.708-8.933-18.895-14.051-30.68-14.051    c-11.792,0-22.978,5.118-30.684,14.051l4.713,4.067C73.094,96.684,82.554,92.348,92.531,92.348z" fill="#ffd700"/>
		<polygon points="99.914,118.884 92.531,103.93 85.147,118.884 68.637,121.283 80.583,132.926 77.771,149.366 92.531,141.603     107.293,149.366 104.481,132.926 116.427,121.283   " fill="#ffd700"/>
		<path d="M92.531,161.149c1.97,3.258,4.39,4.634,8.065,5.547c3.684,0.907,6.441,0.828,9.724-1.127    C106.679,159.73,98.467,157.69,92.531,161.149z" fill="#ffd700"/>
		<path d="M103.653,158.915c2.923,2.436,5.645,2.946,9.426,2.605c3.763-0.328,6.363-1.303,8.829-4.226    C116.561,152.959,108.134,153.69,103.653,158.915z" fill="#ffd700"/>
		<path d="M113.425,153.166c3.562,1.364,6.314,0.95,9.773-0.591c3.452-1.546,5.596-3.318,6.979-6.874    C123.71,143.326,115.977,146.772,113.425,153.166z" fill="#ffd700"/>
		<path d="M120.799,144.556c3.812,0.122,6.284-1.162,9.043-3.738c2.764-2.588,4.207-4.957,4.354-8.769    C127.315,131.903,121.14,137.682,120.799,144.556z" fill="#ffd700"/>
		<path d="M124.977,134.01c3.641-1.12,5.565-3.142,7.331-6.479c1.778-3.35,2.368-6.053,1.254-9.706    C127.023,119.932,123.052,127.403,124.977,134.01z" fill="#ffd700"/>
		<path d="M125.488,122.678c3.075-2.247,4.238-4.78,4.823-8.519c0.591-3.732,0.256-6.497-1.961-9.584    C122.833,108.703,121.518,117.069,125.488,122.678z" fill="#ffd700"/>
		<path d="M74.747,165.569c3.273,1.955,6.038,2.041,9.715,1.127c3.672-0.913,6.086-2.289,8.068-5.547    C86.587,157.69,78.37,159.73,74.747,165.569z" fill="#ffd700"/>
		<path d="M92.531,163.999c-3.267,1.017-5.289,4.707-4.372,8.014c1.83-0.543,2.783-1.535,3.699-3.186    c0.35-0.645,0.523-1.229,0.673-1.826c0.155,0.597,0.332,1.182,0.679,1.826c0.91,1.656,1.873,2.643,3.693,3.186    C97.832,168.706,95.797,165.01,92.531,163.999z" fill="#ffd700"/>
		<path d="M63.157,157.295c2.457,2.91,5.063,3.897,8.829,4.226c3.772,0.341,6.491-0.17,9.42-2.605    C76.924,153.69,68.488,152.959,63.157,157.295z" fill="#ffd700"/>
		<path d="M71.629,153.166c-2.542-6.388-10.281-9.84-16.748-7.465c1.373,3.556,3.522,5.328,6.984,6.874    C65.333,154.11,68.077,154.519,71.629,153.166z" fill="#ffd700"/>
		<path d="M64.268,144.556c-0.344-6.874-6.519-12.652-13.402-12.507c0.137,3.812,1.586,6.187,4.36,8.769    C57.981,143.394,60.444,144.678,64.268,144.556z" fill="#ffd700"/>
		<path d="M60.082,134.01c1.921-6.606-2.031-14.078-8.592-16.185c-1.096,3.653-0.505,6.356,1.267,9.706    C54.519,130.868,56.44,132.89,60.082,134.01z" fill="#ffd700"/>
		<path d="M59.57,122.678c3.979-5.62,2.664-13.975-2.85-18.103c-2.226,3.087-2.554,5.852-1.964,9.596    C55.338,117.91,56.498,120.431,59.57,122.678z" fill="#ffd700"/>
	</g>
</g>
<g>
</g>
<g>
</g>
<g>
</g>
<g>
</g>
<g>
</g>
<g>
</g>
<g>
</g>
<g>
</g>
<g>
</g>
<g>
</g>
<g>
</g>
<g>
</g>
<g>
</g>
<g>
</g>
<g>
</g>
</svg>
