<svg width="113" height="138" xmlns="http://www.w3.org/2000/svg">
 <g>
  <title>background</title>
  <rect x="-1" y="-1" width="115" height="140" id="canvas_background" fill="none"/>
 </g>

 <g>
  <title>Layer 1</title>
  <g stroke="null" transform="rotate(89.78306579589844 67.1139450073242,92.56903076171875) " id="svg_5">
   <path stroke="white" fill="white" stroke-width="0" d="m67.122593,136.478996c-1.171147,0 -2.34614,-0.046538 -3.524018,-0.141545c-21.5518,-1.736465 -38.611318,-19.480207 -39.681504,-41.272792c-0.604804,-12.319108 3.995169,-24.371589 12.62012,-33.068456c8.624951,-8.695898 20.571998,-13.337136 32.794043,-12.72341c21.734491,1.085896 39.338237,18.394311 40.948804,40.261551c0.635573,8.62609 -1.221147,17.108687 -5.372085,24.58586l5.157663,18.873269c0.240383,0.88326 -0.005769,1.835359 -0.643266,2.485927c-0.636535,0.650568 -1.575953,0.912347 -2.453832,0.681594l-19.108545,-5.017423c-6.374964,3.51559 -13.469154,5.335436 -20.737381,5.335436l0,-0.00001z" id="svg_4"/>
  </g>
  <g transform="rotate(90 67.26571655273438,92.54543304443361) " id="svg_1">
   <g id="svg_2">
    <path stroke-width="0" stroke="white" d="m67.27471,137.83443c-1.218,0 -2.44,-0.048 -3.665,-0.146c-22.414,-1.791 -40.156,-20.092 -41.269,-42.569c-0.629,-12.706 4.155,-25.137 13.125,-34.107c8.97,-8.969 21.395,-13.756 34.106,-13.123c22.604,1.12 40.912,18.972 42.587,41.526c0.661,8.897 -1.27,17.646 -5.587,25.358l5.364,19.466c0.25,0.911 -0.006,1.893 -0.669,2.564c-0.662,0.671 -1.639,0.941 -2.552,0.703l-19.873,-5.175c-6.63,3.626 -14.008,5.503 -21.567,5.503zm0.069,-85.909c-10.841,0 -21.308,4.303 -28.986,11.98c-8.154,8.154 -12.503,19.458 -11.931,31.011c1.012,20.432 17.137,37.066 37.509,38.693c8.292,0.663 16.452,-1.15 23.611,-5.241l0.724,-0.413l19.058,4.962l-5.156,-18.709l0.436,-0.745c4.2,-7.176 6.092,-15.387 5.471,-23.745c-1.522,-20.499 -18.164,-36.725 -38.71,-37.742c-0.677,-0.034 -1.352,-0.051 -2.026,-0.051z" id="svg_3"/>
   </g>
  </g>
  <g stroke="null" transform="rotate(-12.917147636413574 52.04746246337888,36.952110290527344) " id="svg_31">
   <g stroke="null" transform="matrix(1.0444044917627677,0,0,0.8570377977136661,-65.610568756094,178.42045148169933) " id="svg_29">
    <title>background</title>
    <rect stroke="null" fill="none" id="svg_27" height="24.22222" width="33.74603" y="-198.340364" x="64.655618"/>
   </g>
   <g stroke="null" transform="matrix(1.0444044917627677,0,0,0.8570377977136661,-65.610568756094,178.42045148169933) " id="svg_30">
    <title>Layer 1</title>
    <g stroke="null" id="svg_24">
     <polygon stroke="black" fill="#fff200" id="svg_26" points="79.34562230110168,-137.7918758392334 79.34562230110168,-131.79288291931152 115.65562748908997,-131.79288291931152 151.96561741828918,-131.79288291931152 151.96561741828918,-137.7918758392334 115.65562748908997,-137.7918758392334 "/>
     <path stroke="black" fill="#fff200" id="svg_25" d="m158.52962,-174.16289l2.126,-11.964l-17.103,9.961l0,10.629c0,3.21 -2.601,5.811 -5.811,5.811c-3.21,0 -5.811,-2.601 -5.811,-5.811l0,-10.629l-16.275,-19.127l-16.269,19.127l0,10.629c0,3.21 -2.607,5.811 -5.811,5.811c-3.21,0 -5.817,-2.601 -5.817,-5.811l0,-10.629l-17.103,-9.961l2.131,11.964c2.847,0.038 5.806,2.665 7.072,6.548c1.48,4.551 0.07,9.102 -3.162,10.148c-0.299,0.096 -0.604,0.149 -0.908,0.182l2.841,15.992l37.026,0l37.031,0l2.842,-15.992c-0.31,-0.032 -0.614,-0.085 -0.913,-0.182c-3.226,-1.047 -4.642,-5.598 -3.157,-10.148c1.26,-3.882 4.225,-6.51 7.071,-6.548zm-70.034,28.074l-5.336,0l0,-5.331l5.336,0l0,5.331zm9.94,0l-5.336,0l0,-5.331l5.336,0l0,5.331zm9.945,0l-5.336,0l0,-5.331l5.336,0l0,5.331zm9.946,0l-2.671,0l-2.665,0l0,-5.331l2.665,0l2.671,0l0,5.331zm-2.671,-19.084l-5.544,-5.544l5.544,-5.54l5.544,5.539l-5.544,5.545zm12.611,19.084l-5.336,0l0,-5.331l5.336,0l0,5.331zm9.945,0l-5.336,0l0,-5.331l5.336,0l0,5.331zm9.946,0l-5.336,0l0,-5.331l5.336,0l0,5.331z"/>
    </g>
   </g>
  </g>
  <ellipse fill="#fff" stroke="#000" stroke-width="2" cx="53.311604" cy="79.144896" id="svg_7" rx="6.811573" ry="6.521719"/>
  <ellipse fill="#fff" stroke="#000" stroke-width="2" cx="78.760861" cy="79.144896" id="svg_8" rx="6.811573" ry="6.521719"/>
  <path fill="#fff" stroke-width="2" stroke-opacity="null" fill-opacity="null" d="m49.74119,101.13868l16.34782,0l0,0c9.02865,0 16.34782,4.36035 16.34782,9.73912c0,5.37877 -7.31917,9.73913 -16.34782,9.73913l-16.34782,0l0,-19.47825z" id="svg_9" transform="rotate(90 66.0890121459961,110.87780761718751) " stroke="#000"/>
 </g>
</svg>