<svg width="512" height="512" xmlns="http://www.w3.org/2000/svg">

 <g>
  <title>background</title>
  <rect fill="none" id="canvas_background" height="402" width="582" y="-1" x="-1"/>
 </g>
 <g>
  <title>Layer 1</title>
  <g id="svg_1">
   <g id="svg_2">
    <path fill="#ffffff" id="svg_3" d="m256,187.907c-7.249,0 -13.128,5.879 -13.128,13.128l0,22.813c0,7.249 5.879,13.128 13.128,13.128s13.128,-5.879 13.128,-13.128l0,-22.813c0,-7.249 -5.879,-13.128 -13.128,-13.128z"/>
   </g>
  </g>
  <g id="svg_4">
   <g id="svg_5">
    <path fill="#ffffff" id="svg_6" d="m320.062,128.517l0,-43.128c0,-35.323 -28.739,-64.062 -64.062,-64.062s-64.062,28.739 -64.062,64.062l0,43.127c-20.93,0.894 -37.686,18.194 -37.686,39.341l0,89.165c0,21.717 17.668,39.385 39.385,39.385l124.726,0c21.717,0 39.385,-17.668 39.385,-39.385l0,-89.165c-0.001,-21.146 -16.756,-38.448 -37.686,-39.34zm-101.867,-43.128c0,-20.846 16.959,-37.805 37.805,-37.805s37.805,16.959 37.805,37.805l0,43.084l-75.611,0l0,-43.084l0.001,0zm113.296,171.634c0,7.239 -5.889,13.128 -13.128,13.128l-124.726,0c-7.239,0 -13.128,-5.889 -13.128,-13.128l0,-89.165c0,-7.239 5.889,-13.128 13.128,-13.128l124.726,0c7.239,0 13.128,5.889 13.128,13.128l0,89.165z"/>
   </g>
  </g>
  <g id="svg_7">
   <g id="svg_8">
    <path fill="#ffffff" id="svg_9" d="m466.051,342.403l-420.102,0c-25.336,0 -45.949,20.612 -45.949,45.948l0,56.372c0,25.336 20.613,45.949 45.949,45.949l420.103,0c25.336,0 45.949,-20.613 45.949,-45.949l0,-56.372c-0.001,-25.334 -20.614,-45.948 -45.95,-45.948zm19.693,102.322c0,10.858 -8.834,19.692 -19.692,19.692l-420.103,0c-10.858,0 -19.692,-8.834 -19.692,-19.692l0,-56.373c0,-10.858 8.834,-19.692 19.692,-19.692l420.103,0c10.858,0 19.692,8.834 19.692,19.692l0,56.373z"/>
   </g>
  </g>
  <g id="svg_10">
   <g id="svg_11">
    <path fill="#ffffff" id="svg_12" d="m243.988,403.403c-7.247,0 -13.128,5.881 -13.128,13.128c0,7.26 5.881,13.128 13.128,13.128c7.248,0 13.128,-5.868 13.128,-13.128c0,-7.245 -5.882,-13.128 -13.128,-13.128z"/>
   </g>
  </g>
  <g id="svg_13">
   <g id="svg_14">
    <path fill="#ffffff" id="svg_15" d="m143.398,403.403c-7.247,0 -13.128,5.881 -13.128,13.128c0,7.26 5.881,13.128 13.128,13.128c7.248,0 13.128,-5.868 13.128,-13.128c0,-7.245 -5.88,-13.128 -13.128,-13.128z"/>
   </g>
  </g>
  <g id="svg_16">
   <g id="svg_17">
    <path fill="#ffffff" id="svg_18" d="m294.282,403.403c-7.248,0 -13.128,5.881 -13.128,13.128c0,7.26 5.88,13.128 13.128,13.128c7.247,0 13.128,-5.868 13.128,-13.128c0,-7.245 -5.881,-13.128 -13.128,-13.128z"/>
   </g>
  </g>
  <g id="svg_19">
   <g id="svg_20">
    <path fill="#ffffff" id="svg_21" d="m193.694,403.403c-7.248,0 -13.128,5.881 -13.128,13.128c0,7.26 5.88,13.128 13.128,13.128c7.247,0 13.128,-5.868 13.128,-13.128c0,-7.245 -5.882,-13.128 -13.128,-13.128z"/>
   </g>
  </g>
  <g id="svg_22">
   <g id="svg_23">
    <path fill="#ffffff" id="svg_24" d="m93.092,403.403c-7.247,0 -13.128,5.881 -13.128,13.128c0,7.26 5.881,13.128 13.128,13.128c7.248,0 13.128,-5.868 13.128,-13.128c0,-7.245 -5.88,-13.128 -13.128,-13.128z"/>
   </g>
  </g>
  <g id="svg_25">
   <g id="svg_26">
    <path fill="#ffffff" id="svg_27" d="m344.615,403.403c-7.248,0 -13.128,5.881 -13.128,13.128c0,7.26 5.88,13.128 13.128,13.128c7.247,0 13.128,-5.868 13.128,-13.128c0.001,-7.245 -5.881,-13.128 -13.128,-13.128z"/>
   </g>
  </g>
  <g id="svg_28"/>
  <g id="svg_29"/>
  <g id="svg_30"/>
  <g id="svg_31"/>
  <g id="svg_32"/>
  <g id="svg_33"/>
  <g id="svg_34"/>
  <g id="svg_35"/>
  <g id="svg_36"/>
  <g id="svg_37"/>
  <g id="svg_38"/>
  <g id="svg_39"/>
  <g id="svg_40"/>
  <g id="svg_41"/>
  <g id="svg_42"/>
 </g>
</svg>
