<svg width="511" height="511" xmlns="http://www.w3.org/2000/svg">

 <g>
  <title>Layer 1</title>
  <g id="svg_1">
   <path fill="#ffffff" stroke-width="0" id="svg_2" d="m479.5,132l-448,0c-17.369,0 -31.5,14.131 -31.5,31.5l0,96c0,17.369 14.131,31.5 31.5,31.5l280,0c4.142,0 7.5,-3.358 7.5,-7.5s-3.358,-7.5 -7.5,-7.5l-280,0c-9.098,0 -16.5,-7.402 -16.5,-16.5l0,-96c0,-9.098 7.402,-16.5 16.5,-16.5l448,0c9.098,0 16.5,7.402 16.5,16.5l0,72c0,4.142 3.358,7.5 7.5,7.5s7.5,-3.358 7.5,-7.5l0,-72c0,-17.369 -14.131,-31.5 -31.5,-31.5z"/>
   <path fill="#ffffff" stroke-width="0" id="svg_3" d="m479,253.234l0,-9.734c0,-35.014 -28.486,-63.5 -63.5,-63.5s-63.5,28.486 -63.5,63.5l0,9.734c-9.29,3.138 -16,11.93 -16,22.266l0,80c0,12.958 10.542,23.5 23.5,23.5l112,0c12.958,0 23.5,-10.542 23.5,-23.5l0,-80c0,-10.336 -6.71,-19.128 -16,-22.266zm-63.5,-58.234c26.743,0 48.5,21.757 48.5,48.5l0,8.5l-97,0l0,-8.5c0,-26.743 21.757,-48.5 48.5,-48.5zm64.5,160.5c0,4.687 -3.813,8.5 -8.5,8.5l-112,0c-4.687,0 -8.5,-3.813 -8.5,-8.5l0,-80c0,-4.687 3.813,-8.5 8.5,-8.5l112,0c4.687,0 8.5,3.813 8.5,8.5l0,80z"/>
   <path fill="#ffffff" stroke-width="0" id="svg_4" d="m121.708,191.75c-2.071,-3.588 -6.658,-4.816 -10.245,-2.745l-16.463,9.505l0,-19.01c0,-4.142 -3.358,-7.5 -7.5,-7.5s-7.5,3.358 -7.5,7.5l0,19.01l-16.463,-9.505c-3.587,-2.072 -8.174,-0.842 -10.245,2.745c-2.071,3.587 -0.842,8.174 2.745,10.245l16.463,9.505l-16.463,9.505c-3.587,2.071 -4.816,6.658 -2.745,10.245c1.389,2.406 3.91,3.751 6.502,3.751c1.272,0 2.562,-0.324 3.743,-1.006l16.463,-9.505l0,19.01c0,4.142 3.358,7.5 7.5,7.5s7.5,-3.358 7.5,-7.5l0,-19.01l16.463,9.505c1.181,0.682 2.471,1.006 3.743,1.006c2.592,0 5.113,-1.345 6.502,-3.751c2.071,-3.587 0.842,-8.174 -2.745,-10.245l-16.463,-9.505l16.463,-9.505c3.587,-2.071 4.816,-6.658 2.745,-10.245z"/>
   <path fill="#ffffff" stroke-width="0" id="svg_5" d="m217.708,191.75c-2.071,-3.588 -6.658,-4.816 -10.245,-2.745l-16.463,9.505l0,-19.01c0,-4.142 -3.358,-7.5 -7.5,-7.5s-7.5,3.358 -7.5,7.5l0,19.01l-16.463,-9.505c-3.587,-2.072 -8.174,-0.842 -10.245,2.745c-2.071,3.587 -0.842,8.174 2.745,10.245l16.463,9.505l-16.463,9.505c-3.587,2.071 -4.816,6.658 -2.745,10.245c1.389,2.406 3.91,3.751 6.502,3.751c1.272,0 2.562,-0.324 3.743,-1.006l16.463,-9.505l0,19.01c0,4.142 3.358,7.5 7.5,7.5s7.5,-3.358 7.5,-7.5l0,-19.01l16.463,9.505c1.181,0.682 2.471,1.006 3.743,1.006c2.592,0 5.113,-1.345 6.502,-3.751c2.071,-3.587 0.842,-8.174 -2.745,-10.245l-16.463,-9.505l16.463,-9.505c3.587,-2.071 4.816,-6.658 2.745,-10.245z"/>
   <path fill="#ffffff" stroke-width="0" id="svg_6" d="m313.708,191.75c-2.071,-3.588 -6.658,-4.816 -10.245,-2.745l-16.463,9.505l0,-19.01c0,-4.142 -3.358,-7.5 -7.5,-7.5s-7.5,3.358 -7.5,7.5l0,19.01l-16.463,-9.505c-3.587,-2.072 -8.174,-0.842 -10.245,2.745c-2.071,3.587 -0.842,8.174 2.745,10.245l16.463,9.505l-16.463,9.505c-3.587,2.071 -4.816,6.658 -2.745,10.245c1.389,2.406 3.91,3.751 6.502,3.751c1.272,0 2.562,-0.324 3.743,-1.006l16.463,-9.505l0,19.01c0,4.142 3.358,7.5 7.5,7.5s7.5,-3.358 7.5,-7.5l0,-19.01l16.463,9.505c1.181,0.682 2.471,1.006 3.743,1.006c2.592,0 5.113,-1.345 6.502,-3.751c2.071,-3.587 0.842,-8.174 -2.745,-10.245l-16.463,-9.505l16.463,-9.505c3.587,-2.071 4.816,-6.658 2.745,-10.245z"/>
   <path fill="#ffffff" stroke-width="0" id="svg_7" d="m415.5,284c-12.958,0 -23.5,10.542 -23.5,23.5c0,10.336 6.71,19.128 16,22.266l0,9.734c0,4.142 3.358,7.5 7.5,7.5s7.5,-3.358 7.5,-7.5l0,-9.734c9.29,-3.138 16,-11.93 16,-22.266c0,-12.958 -10.542,-23.5 -23.5,-23.5zm0,32c-4.687,0 -8.5,-3.813 -8.5,-8.5s3.813,-8.5 8.5,-8.5s8.5,3.813 8.5,8.5s-3.813,8.5 -8.5,8.5z"/>
  </g>
  <g id="svg_8"/>
  <g id="svg_9"/>
  <g id="svg_10"/>
  <g id="svg_11"/>
  <g id="svg_12"/>
  <g id="svg_13"/>
  <g id="svg_14"/>
  <g id="svg_15"/>
  <g id="svg_16"/>
  <g id="svg_17"/>
  <g id="svg_18"/>
  <g id="svg_19"/>
  <g id="svg_20"/>
  <g id="svg_21"/>
  <g id="svg_22"/>
 </g>
</svg>
