<?xml version="1.0" encoding="iso-8859-1"?>
<!-- Generator: Adobe Illustrator 16.0.0, SVG Export Plug-In . SVG Version: 6.00 Build 0)  -->
<!DOCTYPE svg PUBLIC "-//W3C//DTD SVG 1.1//EN" "http://www.w3.org/Graphics/SVG/1.1/DTD/svg11.dtd">
<svg xmlns="http://www.w3.org/2000/svg" xmlns:xlink="http://www.w3.org/1999/xlink" version="1.1" id="Capa_1" x="0px" y="0px" width="512px" height="512px" viewBox="0 0 181.594 181.593" style="enable-background:new 0 0 181.594 181.593;" xml:space="preserve">
<g>
	<g>
		<polygon points="105.295,74.821 128.553,21.035 107.519,0 90.786,41.847   " fill="#c0c0c0"/>
		<polygon points="92.438,25.557 102.657,0 72.003,0 83.244,25.557   " fill="#c0c0c0"/>
		<polygon points="102.668,80.901 67.073,0 46.04,21.035 75.159,80.901   " fill="#c0c0c0"/>
		<path d="M90.797,83.792c-27.002,0-48.9,21.894-48.9,48.904c0,27.003,21.894,48.896,48.9,48.896c27.008,0,48.9-21.894,48.9-48.896    C139.697,105.686,117.8,83.792,90.797,83.792z M129.538,134.13c-1.719,3.25-3.596,5.215-7.13,6.303    c-1.872-6.424,1.984-13.713,8.364-15.759C131.845,128.23,131.271,130.868,129.538,134.13z M125.691,111.771    c2.161,3.01,2.487,5.701,1.913,9.347c-0.574,3.644-1.702,6.102-4.706,8.296C119.042,123.937,120.321,115.798,125.691,111.771z     M131.388,138.529c-0.145,3.711-1.556,6.024-4.249,8.542c-2.689,2.512-5.089,3.76-8.81,3.649    C118.663,144.019,124.677,138.387,131.388,138.529z M74.709,145.566h5.229c1.839,0,3.015-0.114,3.53-0.345    c0.516-0.229,0.901-0.607,1.16-1.138c0.257-0.525,0.379-1.637,0.379-3.327v-28.695H74.709v-7.13    c2.941-0.296,5.201-0.603,6.77-0.92c2.353-0.47,4.853-1.104,7.501-1.915c1.474-0.436,2.85-0.968,4.125-1.575h3.604v40.24    c0,1.741,0.071,2.786,0.22,3.131c0.224,0.607,0.607,1.039,1.173,1.304c0.561,0.256,1.601,0.382,3.113,0.382h5.175v7.136H74.716    v-7.147H74.709z M55.916,111.771c5.363,4.027,6.646,12.166,2.769,17.643c-2.993-2.201-4.118-4.652-4.688-8.296    C53.424,117.472,53.749,114.781,55.916,111.771z M50.819,124.674c6.385,2.046,10.234,9.335,8.369,15.759    c-3.546-1.088-5.418-3.053-7.132-6.303C50.324,130.868,49.752,128.23,50.819,124.674z M63.262,150.71    c-3.716,0.12-6.118-1.139-8.801-3.646c-2.701-2.517-4.106-4.832-4.249-8.536C56.919,138.387,62.931,144.019,63.262,150.71z     M54.129,151.836c6.299-2.32,13.833,1.04,16.312,7.268c-3.464,1.318-6.137,0.921-9.51-0.581    C57.563,157.024,55.462,155.295,54.129,151.836z M70.784,167.246c-3.667-0.328-6.206-1.285-8.598-4.114    c5.194-4.235,13.415-3.513,17.779,1.564C77.109,167.071,74.464,167.563,70.784,167.246z M95.052,177.452    c-1.769-0.525-2.703-1.494-3.588-3.103c-0.347-0.624-0.517-1.193-0.667-1.778c-0.148,0.585-0.32,1.154-0.662,1.778    c-0.882,1.621-1.814,2.577-3.594,3.107c-0.893-3.218,1.068-6.812,4.256-7.803C93.979,170.639,95.959,174.239,95.052,177.452z     M98.646,172.281c-3.571-0.887-5.924-2.233-7.85-5.406c-1.935,3.173-4.286,4.52-7.854,5.399c-3.582,0.895-6.271,0.816-9.459-1.094    c3.529-5.696,11.53-7.677,17.318-4.306c5.782-3.371,13.781-1.391,17.328,4.306C104.923,173.09,102.232,173.168,98.646,172.281z     M110.811,167.246c-3.675,0.329-6.336-0.175-9.188-2.55c4.373-5.077,12.582-5.8,17.784-1.564    C117.011,165.96,114.477,166.917,110.811,167.246z M120.662,158.531c-3.379,1.494-6.043,1.892-9.523,0.573    c2.496-6.222,10.024-9.576,16.328-7.268C126.126,155.295,124.033,157.024,120.662,158.531z" fill="#c0c0c0"/>
	</g>
</g>
<g>
</g>
<g>
</g>
<g>
</g>
<g>
</g>
<g>
</g>
<g>
</g>
<g>
</g>
<g>
</g>
<g>
</g>
<g>
</g>
<g>
</g>
<g>
</g>
<g>
</g>
<g>
</g>
<g>
</g>
</svg>
